<svg width="806" height="327" viewBox="0 0 806 327" fill="none" xmlns="http://www.w3.org/2000/svg">
<path d="M108.874 317.632C117.437 307.81 143.627 275.574 145.138 226.968C206.334 275.07 253.93 276.329 276.343 281.618C243.101 312.595 181.906 342.816 108.874 317.632Z" fill="#308088"/>
<path d="M176.701 0.431303C154.409 -1.38622 126.745 2.95575 120.971 5.73242C202.808 35.0149 217.619 143.057 142.811 194.553L143.815 203.641C177.203 233.681 212.348 253.118 257.785 261.448C262.805 246.1 263.056 228.632 262.554 221.816C258.739 184.052 240.714 163.756 232.179 155.174C230.108 152.902 226.555 147.045 228.916 141.795C243.576 112.714 239.459 75.9092 233.936 63.7924C225.15 33.2479 197.034 8.25687 176.701 0.431303Z" fill="#9CDFC9"/>
<path d="M90.175 17.5093C56.3249 33.4085 31.968 64.9942 23.9108 78.9701C55.284 83.5335 79.1283 98.9204 92.1859 110.274C107.016 121.892 123.606 137.551 138.436 176.193C154.523 164.828 175.386 137.551 174.632 102.697C174.029 74.8144 160.137 54.2067 153.266 47.3882C140.447 30.2116 110.787 16.2463 90.175 17.5093Z" fill="#308088"/>
<path d="M10.6446 221.567C-10.5083 172.345 4.68482 117.003 14.9255 95.4855C75.1608 101.537 108.854 148.104 118.172 170.63C147.886 251.323 105.581 296.208 92.2341 311.086C76.3695 302.26 37.0856 283.095 10.6446 221.567Z" fill="#044D6E"/>
<path d="M245.674 144.731C273.04 86.6453 241.901 31.0305 220.772 10.6099C275.102 24.7278 383.007 135.403 291.451 265.238L274.599 264.229C293.967 201.455 254.125 150.781 245.674 144.731Z" fill="#044D6E"/>
<path d="M390.317 247.594C389.561 247.362 388.833 247.246 388.133 247.246C387.623 247.246 387.122 247.309 386.63 247.434C385.476 247.737 384.758 248.291 384.474 249.094C384.399 249.29 384.361 249.487 384.361 249.683C384.361 250.29 384.654 250.942 385.24 251.638C386.015 252.549 387.018 253.191 388.247 253.566C390.667 254.316 392.53 255.655 393.834 257.583C394.685 258.868 395.111 260.145 395.111 261.412C395.111 262.055 395.007 262.689 394.799 263.314C394.288 264.742 393.305 265.884 391.849 266.741C390.412 267.58 388.767 268 386.914 268C385.741 268 384.578 267.821 383.425 267.464C381.685 266.929 380.21 266.081 379 264.92L382.12 262.028C382.839 262.707 383.727 263.207 384.786 263.528C385.543 263.76 386.271 263.876 386.97 263.876C387.481 263.876 387.982 263.814 388.474 263.689C389.627 263.403 390.346 262.85 390.629 262.028C390.705 261.832 390.743 261.627 390.743 261.412C390.743 260.805 390.459 260.154 389.892 259.458C389.116 258.529 388.114 257.878 386.885 257.503C384.446 256.753 382.583 255.423 381.297 253.513C380.428 252.227 379.993 250.951 379.993 249.683C379.993 249.058 380.097 248.434 380.305 247.809C380.967 245.916 382.413 244.56 384.644 243.738C385.798 243.328 386.98 243.122 388.19 243.122C389.324 243.122 390.487 243.301 391.679 243.658C393.305 244.158 394.704 244.943 395.876 246.015L392.87 249.014C392.17 248.371 391.319 247.898 390.317 247.594Z" fill="#044D6E"/>
<path d="M409.296 255.119C409.296 257.708 410.1 259.824 411.707 261.466C413.315 263.108 415.395 263.939 417.947 263.956L417.919 268C414.175 267.982 411.093 266.759 408.672 264.331C406.233 261.903 405.013 258.833 405.013 255.119V233H409.296V243.604H417.947V247.648H409.296V255.119Z" fill="#044D6E"/>
<path d="M438.401 263.903C440.822 263.903 442.883 263.091 444.585 261.466C446.305 259.841 447.166 257.887 447.166 255.601C447.166 253.316 446.305 251.37 444.585 249.764C442.883 248.139 440.822 247.327 438.401 247.327C435.981 247.327 433.91 248.139 432.19 249.764C430.469 251.37 429.609 253.316 429.609 255.601C429.609 257.887 430.469 259.841 432.19 261.466C433.91 263.091 435.981 263.903 438.401 263.903ZM438.401 243.23C442.013 243.23 445.105 244.435 447.676 246.845C450.229 249.273 451.506 252.192 451.506 255.601C451.506 259.029 450.229 261.948 447.676 264.358C445.105 266.786 442.013 268 438.401 268C434.771 268 431.679 266.786 429.126 264.358C426.555 261.948 425.269 259.029 425.269 255.601C425.269 252.192 426.555 249.273 429.126 246.845C431.679 244.435 434.771 243.23 438.401 243.23Z" fill="#044D6E"/>
<path d="M461.04 255.575C461.04 252.2 462.306 249.326 464.84 246.952C467.374 244.56 470.419 243.363 473.973 243.363V247.032C471.477 247.032 469.341 247.862 467.563 249.523C465.805 251.201 464.925 253.218 464.925 255.575V267.545H461.04V255.575Z" fill="#044D6E"/>
<path d="M492.868 268C489.256 268 486.164 266.786 483.593 264.358C481.021 261.93 479.735 259.011 479.735 255.601C479.735 252.192 481.021 249.273 483.593 246.845C486.164 244.417 489.256 243.203 492.868 243.203C496.479 243.203 499.571 244.417 502.143 246.845C504.714 249.273 506 252.192 506 255.601V257.637H492.868V253.566H501.405C500.913 251.745 499.883 250.246 498.313 249.067C496.725 247.889 494.91 247.3 492.868 247.3C490.447 247.3 488.377 248.112 486.656 249.737C484.935 251.361 484.075 253.316 484.075 255.601C484.075 257.887 484.935 259.841 486.656 261.466C488.377 263.091 490.447 263.903 492.868 263.903V268Z" fill="#044D6E"/>
<path d="M448.198 194.534C463.382 194.534 476.33 189.117 487.044 178.283C497.757 167.377 503.114 154.283 503.114 139C503.114 123.717 497.757 110.623 487.044 99.7175C476.33 88.8834 463.382 83.4664 448.198 83.4664C433.086 83.4664 420.138 88.8834 409.353 99.7175C398.64 110.623 393.283 123.717 393.283 139C393.283 154.283 398.64 167.377 409.353 178.283C420.138 189.117 433.086 194.534 448.198 194.534ZM448.198 67C467.852 67 484.631 74.0314 498.538 88.0942C512.444 102.157 519.397 119.126 519.397 139C519.397 158.874 512.444 175.843 498.538 189.906C484.631 203.969 467.852 211 448.198 211C428.545 211 411.766 203.969 397.859 189.906C383.953 175.843 377 158.874 377 139C377 119.126 383.953 102.157 397.859 88.0942C411.766 74.0314 428.545 67 448.198 67Z" fill="#044D6E"/>
<path d="M553.772 161.063C553.772 147.502 558.526 135.951 568.033 126.408C577.541 116.794 588.963 111.987 602.302 111.987V126.731C592.937 126.731 584.919 130.067 578.25 136.74C571.652 143.484 568.353 151.592 568.353 161.063V209.17H553.772V161.063Z" fill="#044D6E"/>
<path d="M673.926 211C660.375 211 648.774 206.157 639.125 196.471C629.547 186.713 624.758 174.982 624.758 161.278V70.6592H640.828V161.278C640.828 170.534 644.056 178.426 650.513 184.955C656.969 191.484 664.774 194.749 673.926 194.749C683.008 194.749 690.777 191.484 697.233 184.955C703.69 178.426 706.918 170.534 706.918 161.278C706.918 152.238 703.761 144.704 697.446 138.677C691.132 132.578 683.292 129.529 673.926 129.529V113.278C687.691 113.278 699.326 117.906 708.834 127.161C718.27 136.489 722.988 147.861 722.988 161.278C722.988 174.982 718.199 186.713 708.621 196.471C699.043 206.157 687.478 211 673.926 211Z" fill="#044D6E"/>
<path d="M773.327 158.91C773.327 169.386 776.378 177.924 782.48 184.525C788.582 191.197 796.422 194.57 806 194.641L805.894 211C791.774 210.928 780.139 205.978 770.986 196.148C761.763 186.318 757.151 173.906 757.151 158.91V113.278H773.327V158.91ZM780.139 82.1749C780.139 86.3363 778.684 89.8879 775.775 92.8296C772.866 95.7713 769.354 97.2422 765.239 97.2422C761.195 97.2422 757.718 95.7713 754.809 92.8296C751.9 89.8879 750.446 86.3363 750.446 82.1749C750.446 78.0135 751.9 74.4978 754.809 71.6278C757.718 68.6861 761.195 67.2152 765.239 67.2152C769.354 67.2152 772.866 68.6861 775.775 71.6278C778.684 74.4978 780.139 78.0135 780.139 82.1749Z" fill="#044D6E"/>
</svg>
