<svg width="34" height="34" viewBox="0 0 34 34" fill="none" xmlns="http://www.w3.org/2000/svg">
<path d="M3.33063 8.74408C3.33369 8.73874 3.33678 8.73336 3.33989 8.72796M3.33989 8.72796C4.12837 7.36029 6.51191 4.26934 9.82447 2.71345C11.8415 2.58985 14.744 3.95649 15.9985 5.63738C16.6709 6.30463 18.0303 8.32128 18.0894 11.0499C18.1632 14.4607 16.1215 17.13 14.5473 18.2422C13.096 14.4607 11.4725 12.9283 10.0213 11.7914C8.74345 10.6803 6.41006 9.17453 3.33989 8.72796ZM3.33989 8.72796C3.3368 8.72751 3.33371 8.72707 3.33063 8.72662M15.2031 23.2109C15.0553 27.9675 12.4923 31.1221 11.6544 32.0832C18.8012 34.5478 24.7897 31.5903 28.0428 28.559C25.8494 28.0414 21.1917 27.9182 15.2031 23.2109ZM12.8381 1.56097C13.4032 1.28925 16.1103 0.864345 18.2918 1.04221C20.2817 1.80801 23.0331 4.25361 23.8929 7.24268C24.4333 8.42843 24.8362 12.0301 23.4015 14.8759C23.1705 15.3897 23.5182 15.9629 23.7209 16.1852C24.5561 17.0251 26.32 19.0112 26.6934 22.7068C26.7425 23.3738 26.718 25.0832 26.2266 26.5852C21.7802 25.77 18.3409 23.8678 15.0737 20.9282L14.9754 20.0389C22.2961 14.9994 20.8467 4.42653 12.8381 1.56097ZM2.4606 10.3441C1.45845 12.4499 -0.0283358 17.8656 2.04167 22.6824C4.62917 28.7035 8.47347 30.579 10.026 31.4426C11.332 29.9867 15.4721 25.5943 12.5642 17.6978C11.6524 15.4933 8.35518 10.9364 2.4606 10.3441ZM22.6046 2.03827C24.6722 4.03663 27.7195 9.47905 25.0414 15.1633C25.8685 15.7554 29.7674 20.7142 27.8721 26.8573L29.5212 26.956C38.4808 14.2504 27.9213 3.41985 22.6046 2.03827Z" stroke="black"/>
</svg>
