<svg width="844" height="403" viewBox="0 0 844 403" fill="none" xmlns="http://www.w3.org/2000/svg">
<g filter="url(#filter0_d_2840_2)">
<path d="M127.874 355.632C136.437 345.81 162.627 313.574 164.138 264.968C225.334 313.07 272.93 314.329 295.343 319.618C262.101 350.595 200.906 380.816 127.874 355.632Z" fill="#308088"/>
<path d="M195.701 38.4313C173.409 36.6138 145.745 40.9557 139.971 43.7324C221.808 73.0149 236.619 181.057 161.811 232.553L162.815 241.641C196.203 271.681 231.348 291.118 276.785 299.448C281.805 284.1 282.056 266.632 281.554 259.816C277.739 222.052 259.714 201.756 251.179 193.174C249.108 190.902 245.555 185.045 247.916 179.795C262.576 150.714 258.459 113.909 252.936 101.792C244.15 71.2479 216.034 46.2569 195.701 38.4313Z" fill="#9CDFC9"/>
<path d="M109.175 55.5093C75.3249 71.4085 50.968 102.994 42.9108 116.97C74.284 121.533 98.1283 136.92 111.186 148.274C126.016 159.892 142.606 175.551 157.436 214.193C173.523 202.828 194.386 175.551 193.632 140.697C193.029 112.814 179.137 92.2067 172.266 85.3882C159.447 68.2116 129.787 54.2463 109.175 55.5093Z" fill="#308088"/>
<path d="M29.6446 259.567C8.49169 210.345 23.6848 155.003 33.9255 133.485C94.1608 139.537 127.854 186.104 137.172 208.63C166.886 289.323 124.581 334.208 111.234 349.086C95.3695 340.26 56.0856 321.095 29.6446 259.567Z" fill="#044D6E"/>
<path d="M264.674 182.731C292.04 124.645 260.901 69.0305 239.772 48.6099C294.102 62.7278 402.007 173.403 310.451 303.238L293.599 302.229C312.967 239.455 273.125 188.781 264.674 182.731Z" fill="#044D6E"/>
<path d="M42.8161 117.135C42.8474 117.08 42.8789 117.025 42.9108 116.97M42.9108 116.97C50.968 102.994 75.3249 71.4085 109.175 55.5093C129.787 54.2463 159.447 68.2116 172.266 85.3882C179.137 92.2067 193.029 112.814 193.632 140.697C194.386 175.551 173.523 202.828 157.436 214.193C142.606 175.551 126.016 159.892 111.186 148.274C98.1283 136.92 74.284 121.533 42.9108 116.97ZM42.9108 116.97C42.8792 116.966 42.8476 116.961 42.8161 116.956M164.138 264.968C162.627 313.574 136.437 345.81 127.874 355.632C200.906 380.816 262.101 350.595 295.343 319.618C272.93 314.329 225.334 313.07 164.138 264.968ZM139.971 43.7324C145.745 40.9557 173.409 36.6138 195.701 38.4313C216.034 46.2569 244.15 71.2479 252.936 101.792C258.459 113.909 262.576 150.714 247.916 179.795C245.555 185.045 249.108 190.902 251.179 193.174C259.714 201.756 277.739 222.052 281.554 259.816C282.056 266.632 281.805 284.1 276.785 299.448C231.348 291.118 196.203 271.681 162.815 241.641L161.811 232.553C236.619 181.057 221.808 73.0149 139.971 43.7324ZM33.9255 133.485C23.6848 155.003 8.49169 210.345 29.6446 259.567C56.0856 321.095 95.3695 340.26 111.234 349.086C124.581 334.208 166.886 289.323 137.172 208.63C127.854 186.104 94.1608 139.537 33.9255 133.485ZM239.772 48.6099C260.901 69.0305 292.04 124.645 264.674 182.731C273.125 188.781 312.967 239.455 293.599 302.229L310.451 303.238C402.007 173.403 294.102 62.7278 239.772 48.6099Z" stroke="#044D6E"/>
</g>
<g filter="url(#filter1_d_2840_2)">
<path d="M409.317 285.594C408.561 285.362 407.833 285.246 407.133 285.246C406.623 285.246 406.122 285.309 405.63 285.434C404.476 285.737 403.758 286.291 403.474 287.094C403.399 287.29 403.361 287.487 403.361 287.683C403.361 288.29 403.654 288.942 404.24 289.638C405.015 290.549 406.018 291.191 407.247 291.566C409.667 292.316 411.53 293.655 412.834 295.583C413.685 296.868 414.111 298.145 414.111 299.412C414.111 300.055 414.007 300.689 413.799 301.314C413.288 302.742 412.305 303.884 410.849 304.741C409.412 305.58 407.767 306 405.914 306C404.741 306 403.578 305.821 402.425 305.464C400.685 304.929 399.21 304.081 398 302.92L401.12 300.028C401.839 300.707 402.727 301.207 403.786 301.528C404.543 301.76 405.271 301.876 405.97 301.876C406.481 301.876 406.982 301.814 407.474 301.689C408.627 301.403 409.346 300.85 409.629 300.028C409.705 299.832 409.743 299.627 409.743 299.412C409.743 298.805 409.459 298.154 408.892 297.458C408.116 296.529 407.114 295.878 405.885 295.503C403.446 294.753 401.583 293.423 400.297 291.513C399.428 290.227 398.993 288.951 398.993 287.683C398.993 287.058 399.097 286.434 399.305 285.809C399.967 283.916 401.413 282.56 403.644 281.738C404.798 281.328 405.98 281.122 407.19 281.122C408.324 281.122 409.487 281.301 410.679 281.658C412.305 282.158 413.704 282.943 414.876 284.015L411.87 287.014C411.17 286.371 410.319 285.898 409.317 285.594Z" fill="#308088"/>
<path d="M428.296 293.119C428.296 295.708 429.1 297.824 430.707 299.466C432.315 301.108 434.395 301.939 436.947 301.956L436.919 306C433.175 305.982 430.093 304.759 427.672 302.331C425.233 299.903 424.013 296.833 424.013 293.119V271H428.296V281.604H436.947V285.648H428.296V293.119Z" fill="#308088"/>
<path d="M457.401 301.903C459.822 301.903 461.883 301.091 463.585 299.466C465.305 297.841 466.166 295.887 466.166 293.601C466.166 291.316 465.305 289.37 463.585 287.764C461.883 286.139 459.822 285.327 457.401 285.327C454.981 285.327 452.91 286.139 451.19 287.764C449.469 289.37 448.609 291.316 448.609 293.601C448.609 295.887 449.469 297.841 451.19 299.466C452.91 301.091 454.981 301.903 457.401 301.903ZM457.401 281.23C461.013 281.23 464.105 282.435 466.676 284.845C469.229 287.273 470.506 290.192 470.506 293.601C470.506 297.029 469.229 299.948 466.676 302.358C464.105 304.786 461.013 306 457.401 306C453.771 306 450.679 304.786 448.126 302.358C445.555 299.948 444.269 297.029 444.269 293.601C444.269 290.192 445.555 287.273 448.126 284.845C450.679 282.435 453.771 281.23 457.401 281.23Z" fill="#308088"/>
<path d="M480.04 293.575C480.04 290.2 481.306 287.326 483.84 284.952C486.374 282.56 489.419 281.363 492.973 281.363V285.032C490.477 285.032 488.341 285.862 486.563 287.523C484.805 289.201 483.925 291.218 483.925 293.575V305.545H480.04V293.575Z" fill="#308088"/>
<path d="M511.868 306C508.256 306 505.164 304.786 502.593 302.358C500.021 299.93 498.735 297.011 498.735 293.601C498.735 290.192 500.021 287.273 502.593 284.845C505.164 282.417 508.256 281.203 511.868 281.203C515.479 281.203 518.571 282.417 521.143 284.845C523.714 287.273 525 290.192 525 293.601V295.637H511.868V291.566H520.405C519.913 289.745 518.883 288.246 517.313 287.067C515.725 285.889 513.91 285.3 511.868 285.3C509.447 285.3 507.377 286.112 505.656 287.737C503.935 289.361 503.075 291.316 503.075 293.601C503.075 295.887 503.935 297.841 505.656 299.466C507.377 301.091 509.447 301.903 511.868 301.903V306Z" fill="#308088"/>
</g>
<g filter="url(#filter2_d_2840_2)">
<path d="M467.198 232.534C482.382 232.534 495.33 227.117 506.044 216.283C516.757 205.377 522.114 192.283 522.114 177C522.114 161.717 516.757 148.623 506.044 137.717C495.33 126.883 482.382 121.466 467.198 121.466C452.086 121.466 439.138 126.883 428.353 137.717C417.64 148.623 412.283 161.717 412.283 177C412.283 192.283 417.64 205.377 428.353 216.283C439.138 227.117 452.086 232.534 467.198 232.534ZM467.198 105C486.852 105 503.631 112.031 517.538 126.094C531.444 140.157 538.397 157.126 538.397 177C538.397 196.874 531.444 213.843 517.538 227.906C503.631 241.969 486.852 249 467.198 249C447.545 249 430.766 241.969 416.859 227.906C402.953 213.843 396 196.874 396 177C396 157.126 402.953 140.157 416.859 126.094C430.766 112.031 447.545 105 467.198 105Z" fill="#308088"/>
<path d="M572.772 199.063C572.772 185.502 577.526 173.951 587.033 164.408C596.541 154.794 607.964 149.987 621.302 149.987V164.731C611.937 164.731 603.919 168.067 597.25 174.74C590.652 181.484 587.353 189.592 587.353 199.063V247.17H572.772V199.063Z" fill="#308088"/>
<path d="M692.926 249C679.375 249 667.774 244.157 658.125 234.471C648.547 224.713 643.758 212.982 643.758 199.278V108.659H659.828V199.278C659.828 208.534 663.056 216.426 669.513 222.955C675.969 229.484 683.774 232.749 692.926 232.749C702.008 232.749 709.777 229.484 716.233 222.955C722.69 216.426 725.918 208.534 725.918 199.278C725.918 190.238 722.761 182.704 716.446 176.677C710.132 170.578 702.292 167.529 692.926 167.529V151.278C706.691 151.278 718.326 155.906 727.834 165.161C737.27 174.489 741.988 185.861 741.988 199.278C741.988 212.982 737.199 224.713 727.621 234.471C718.043 244.157 706.478 249 692.926 249Z" fill="#308088"/>
<path d="M792.327 196.91C792.327 207.386 795.378 215.924 801.48 222.525C807.582 229.197 815.422 232.57 825 232.641L824.894 249C810.774 248.928 799.139 243.978 789.986 234.148C780.763 224.318 776.151 211.906 776.151 196.91V151.278H792.327V196.91ZM799.139 120.175C799.139 124.336 797.684 127.888 794.775 130.83C791.866 133.771 788.354 135.242 784.239 135.242C780.195 135.242 776.718 133.771 773.809 130.83C770.901 127.888 769.446 124.336 769.446 120.175C769.446 116.013 770.901 112.498 773.809 109.628C776.718 106.686 780.195 105.215 784.239 105.215C788.354 105.215 791.866 106.686 794.775 109.628C797.684 112.498 799.139 116.013 799.139 120.175Z" fill="#308088"/>
</g>
<defs>
<filter id="filter0_d_2840_2" x="17.5" y="36.5" width="334" height="334.001" filterUnits="userSpaceOnUse" color-interpolation-filters="sRGB">
<feFlood flood-opacity="0" result="BackgroundImageFix"/>
<feColorMatrix in="SourceAlpha" type="matrix" values="0 0 0 0 0 0 0 0 0 0 0 0 0 0 0 0 0 0 127 0" result="hardAlpha"/>
<feOffset dx="2" dy="2"/>
<feGaussianBlur stdDeviation="1.5"/>
<feComposite in2="hardAlpha" operator="out"/>
<feColorMatrix type="matrix" values="0 0 0 0 0 0 0 0 0 0 0 0 0 0 0 0 0 0 0.5 0"/>
<feBlend mode="normal" in2="BackgroundImageFix" result="effect1_dropShadow_2840_2"/>
<feBlend mode="normal" in="SourceGraphic" in2="effect1_dropShadow_2840_2" result="shape"/>
</filter>
<filter id="filter1_d_2840_2" x="397" y="270" width="133" height="41" filterUnits="userSpaceOnUse" color-interpolation-filters="sRGB">
<feFlood flood-opacity="0" result="BackgroundImageFix"/>
<feColorMatrix in="SourceAlpha" type="matrix" values="0 0 0 0 0 0 0 0 0 0 0 0 0 0 0 0 0 0 127 0" result="hardAlpha"/>
<feOffset dx="2" dy="2"/>
<feGaussianBlur stdDeviation="1.5"/>
<feComposite in2="hardAlpha" operator="out"/>
<feColorMatrix type="matrix" values="0 0 0 0 0 0 0 0 0 0 0 0 0 0 0 0 0 0 0.5 0"/>
<feBlend mode="normal" in2="BackgroundImageFix" result="effect1_dropShadow_2840_2"/>
<feBlend mode="normal" in="SourceGraphic" in2="effect1_dropShadow_2840_2" result="shape"/>
</filter>
<filter id="filter2_d_2840_2" x="395" y="104" width="435" height="150" filterUnits="userSpaceOnUse" color-interpolation-filters="sRGB">
<feFlood flood-opacity="0" result="BackgroundImageFix"/>
<feColorMatrix in="SourceAlpha" type="matrix" values="0 0 0 0 0 0 0 0 0 0 0 0 0 0 0 0 0 0 127 0" result="hardAlpha"/>
<feOffset dx="2" dy="2"/>
<feGaussianBlur stdDeviation="1.5"/>
<feComposite in2="hardAlpha" operator="out"/>
<feColorMatrix type="matrix" values="0 0 0 0 0 0 0 0 0 0 0 0 0 0 0 0 0 0 0.5 0"/>
<feBlend mode="normal" in2="BackgroundImageFix" result="effect1_dropShadow_2840_2"/>
<feBlend mode="normal" in="SourceGraphic" in2="effect1_dropShadow_2840_2" result="shape"/>
</filter>
</defs>
</svg>
